HIERARCHY
ROOT Hips
{
  OFFSET -32.5998 29.0326 120.673
  CHANNELS 6 Xposition Yposition Zposition Zrotation Xrotation Yrotation
  JOINT LeftUpLeg
  {
    OFFSET 8.64259 1.95398 -2.38835
    CHANNELS 3 Zrotation Xrotation Yrotation
    JOINT LeftLeg
    {
      OFFSET 43.7702 0 0
      CHANNELS 3 Zrotation Xrotation Yrotation
      JOINT LeftFoot
      {
        OFFSET 40.6238 0 0
        CHANNELS 3 Zrotation Xrotation Yrotation
        JOINT LeftToeBase
        {
          OFFSET 12.7242 0 0
          CHANNELS 3 Zrotation Xrotation Yrotation
          End Site
          {
            OFFSET 0 0 0
          }
        }
      }
    }
  }
  JOINT RightUpLeg
  {
    OFFSET -8.2249 1.95398 -2.59336
    CHANNELS 3 Zrotation Xrotation Yrotation
    JOINT RightLeg
    {
      OFFSET 43.5653 0 0
      CHANNELS 3 Zrotation Xrotation Yrotation
      JOINT RightFoot
      {
        OFFSET 40.6238 0 0
        CHANNELS 3 Zrotation Xrotation Yrotation
        JOINT RightToeBase
        {
          OFFSET 12.7242 0 0
          CHANNELS 3 Zrotation Xrotation Yrotation
          End Site
          {
            OFFSET 0 0 0
          }
        }
      }
    }
  }
  JOINT Spine
  {
    OFFSET 0.165834 0.87714 6.61349
    CHANNELS 3 Zrotation Xrotation Yrotation
    JOINT Spine1
    {
      OFFSET 7.38963 1.71661e-005 0
      CHANNELS 3 Zrotation Xrotation Yrotation
      JOINT Spine2
      {
        OFFSET 11.9445 1.14441e-005 0
        CHANNELS 3 Zrotation Xrotation Yrotation
        JOINT Spine3
        {
          OFFSET 14.7254 4.19617e-005 0
          CHANNELS 3 Zrotation Xrotation Yrotation
          JOINT Spine4
          {
            OFFSET 10.9679 0 0
            CHANNELS 3 Zrotation Xrotation Yrotation
            JOINT RightShoulder
            {
              OFFSET 2.46616 -1.6653 3.69651
              CHANNELS 3 Zrotation Xrotation Yrotation
              JOINT RightArm
              {
                OFFSET 13.0012 0 0
                CHANNELS 3 Zrotation Xrotation Yrotation
                JOINT RightForeArm
                {
                  OFFSET 28.7848 1.62311e-005 0
                  CHANNELS 3 Zrotation Xrotation Yrotation
                  JOINT RightHand
                  {
                    OFFSET 26.5688 1.62095e-005 0
                    CHANNELS 3 Zrotation Xrotation Yrotation
                    End Site
                    {
                      OFFSET 0 0 0
                    }
                  }
                }
              }
            }
            JOINT LeftShoulder
            {
              OFFSET 2.38034 -1.29275 -3.7523
              CHANNELS 3 Zrotation Xrotation Yrotation
              JOINT LeftArm
              {
                OFFSET 16.3182 6.07031e-005 0
                CHANNELS 3 Zrotation Xrotation Yrotation
                JOINT LeftForeArm
                {
                  OFFSET 27.0901 0 0
                  CHANNELS 3 Zrotation Xrotation Yrotation
                  JOINT LeftHand
                  {
                    OFFSET 24.5451 1.51738e-005 0
                    CHANNELS 3 Zrotation Xrotation Yrotation
                    End Site
                    {
                      OFFSET 0 0 0
                    }
                  }
                }
              }
            }
            JOINT Neck
            {
              OFFSET 5.0226 -0.0266342 0
              CHANNELS 3 Zrotation Xrotation Yrotation
              JOINT Head
              {
                OFFSET 6.69364 2.86102e-005 0
                CHANNELS 3 Zrotation Xrotation Yrotation
                End Site
                {
                  OFFSET 0 0 0
                }
              }
            }
          }
        }
      }
    }
  }
}
MOTION
Frames:	15
Frame Time:	0.0416667
-5.33684 98.9151 362.738 -144.791 -82.0223 -145.156 -172.68 -6.85819 91.0643 -8.91555 5.90503 0.0835123 67.581 4.81491 0.180769 21.9267 -5.2114 4.75206 172.959 -4.20781 88.4179 -11.0605 -12.2094 -1.46998 65.349 -2.81216 0.0398847 26.6589 0.0205222 3.5352 0.465015 7.541 -90.3333 11.7941 0.768172 -0.746022 0.123174 0.734583 -0.779117 -22.413 0.956862 -0.480669 -2.40032 0.956854 -0.48068 92.7729 -25.469 -102.692 44.9654 -20.3092 -7.44289 -12.8855 -16.4199 -23.4262 -13.7147 -0.360552 -2.18878 -88.7933 -50.5576 80.642 -24.3211 29.0636 -15.3783 4.57422 -9.88152 -9.33543 -5.50892 -0.0925033 -4.29782 4.59462 -2.86893 -0.832432 -11.8621 -2.79566 1.52679 
-5.36155 98.9257 362.74 -144.59 -82.0295 -144.793 -172.381 -6.70501 91.4661 -9.3272 5.66479 -0.12023 69.4835 5.68204 -1.22635 17.2734 -8.94958 7.27759 172.959 -4.36047 88.56 -10.7569 -12.5521 -1.37214 65.256 -2.90683 -0.203686 26.5388 0.19454 3.06662 0.430628 7.52376 -90.3192 11.8291 0.706239 -0.711668 0.158143 0.674243 -0.74207 -22.3778 0.887479 -0.466508 -2.36516 0.887475 -0.466513 92.0019 -26.3413 -104.019 44.1906 -18.9955 -7.12654 -13.393 -17.7081 -23.7274 -16.4045 -0.499786 -1.68415 -88.5083 -48.7243 80.7198 -25.4014 29.8331 -14.5905 4.56446 -10.4911 -10.8857 -4.83071 -0.0501439 -6.32262 4.11344 -2.6986 -2.17079 -11.5598 -2.49773 2.96375 
-5.45096 98.9376 362.761 -145.078 -82.3114 -145.309 -172.451 -6.48987 91.4944 -9.34129 5.7071 -0.0176536 69.2226 5.42332 -1.47184 17.8882 -8.36034 6.80194 172.957 -4.27804 88.603 -10.5565 -12.3702 -1.28112 65.1212 -2.84828 -0.294635 26.5651 0.125528 3.28442 0.301121 7.53589 -90.1303 11.8025 0.537643 -0.316805 0.131667 0.523181 -0.340167 -22.4043 0.607994 -0.140576 -2.39163 0.607999 -0.14057 90.3587 -28.6708 -106.556 42.5972 -18.9893 -7.52955 -12.8995 -16.7328 -23.3324 -16.2695 -0.492658 -1.72888 -87.1937 -45.5002 82.1438 -27.8734 27.3712 -14.1057 6.80435 -5.13578 -10.8202 -6.2959 -0.0587755 -5.24028 4.03266 -2.43403 -3.02407 -11.3406 -1.96333 1.27411 
-5.7636 98.9364 362.764 -149.675 -82.7501 -149.922 -171.912 -6.41294 92.1001 -9.11169 7.03521 -0.483357 69.185 5.64694 -1.40459 17.8326 -8.41375 6.84408 173.18 -4.08782 88.9463 -10.9906 -11.8693 -1.30912 65.0468 -2.66476 -0.536673 26.6215 0.196939 2.92639 0.273306 7.53328 -90.1916 11.8081 0.453449 -0.43029 0.137192 0.434079 -0.449833 -22.3983 0.561801 -0.274118 -2.38567 0.561811 -0.274107 90.7163 -27.9692 -106.096 43.2096 -19.475 -7.26843 -12.596 -16.1472 -22.814 -13.9133 -0.29609 -2.77208 -87.6361 -46.8914 81.7079 -26.2108 28.8184 -14.2268 6.10417 -6.58436 -11.4258 -7.00994 -0.0478617 -5.56305 3.75452 -2.35989 -1.81788 -10.9828 -2.04337 0.405155 
-6.25535 98.9064 362.652 -152.702 -82.4198 -153.05 -171.444 -6.59974 92.6308 -9.39931 7.0609 -0.74111 69.3756 5.88754 -1.97229 17.96 -8.19377 6.57353 173.306 -4.39998 89.1721 -11.5879 -11.5367 -1.33185 65.3905 -2.71845 -0.722603 26.4766 0.251911 2.95049 0.285161 7.60444 -90.1816 11.6658 0.482138 -0.412177 -0.00511598 0.463529 -0.433005 -22.5408 0.583715 -0.248214 -2.52811 0.583721 -0.248227 90.6649 -28.2646 -106.087 42.8788 -20.7465 -6.87748 -11.9167 -14.254 -22.7445 -10.8793 -0.121922 -4.03846 -87.4764 -47.7613 82.1151 -25.1876 26.4964 -14.8224 7.08305 -4.97437 -10.0874 -1.70888 -0.0868322 -3.73241 2.49516 -2.85083 -1.59335 -9.72991 -2.53378 -0.514476 
-6.90779 98.8629 362.288 -152.406 -82.3196 -153.241 -171.18 -6.15418 92.7563 -9.92099 7.2941 -1.09157 69.1258 6.05736 -2.07878 18.1282 -8.48131 7.24339 173.271 -3.50417 89.1262 -13.0271 -11.6376 -1.32067 65.9788 -2.89288 -0.93906 26.391 0.357116 2.69263 0.381963 7.6395 -90.0838 11.5958 0.72061 -0.241467 -0.0749643 0.709289 -0.272965 -22.6117 0.759863 -0.0137173 -2.59907 0.759868 -0.0137209 90.2918 -28.5222 -106.746 42.6912 -19.5544 -6.9268 -12.3138 -15.3189 -22.5828 -12.4533 -0.232254 -3.10346 -87.3998 -48.2148 82.3141 -24.1389 25.9243 -14.1087 6.55744 -8.19405 -11.6526 -1.06594 -0.104604 -5.61994 3.14986 -2.25519 -2.00286 -10.9283 -1.94465 0.813963 
-7.87957 98.723 361.493 -163.123 -82.6553 -164.493 -171.114 -4.77127 92.7656 -11.7176 9.02262 -1.12264 69.0232 6.3789 -1.97845 18.9608 -8.11482 7.38256 173.692 -2.6973 89.4917 -14.5761 -9.93854 -1.47179 66.7963 -2.90626 -1.3566 25.3606 0.693548 3.0662 0.401509 7.73728 -90.0468 11.4 0.777107 -0.17191 -0.270761 0.768792 -0.205957 -22.8078 0.792845 0.0696077 -2.79512 0.792843 0.0695993 90.3222 -28.0068 -106.889 42.6147 -19.927 -6.94784 -12.3598 -14.948 -22.9438 -11.7012 -0.201845 -3.3155 -87.5193 -49.5113 82.3606 -23.5583 22.3076 -13.651 6.30948 -10.8562 -11.6257 -2.47759 -0.0937557 -6.34589 2.23707 -2.94132 -0.711783 -9.45379 -2.74112 -1.21461 
-9.0557 98.4131 360.068 175.461 -83.4032 173.318 -172.051 -0.208879 92.5744 -16.0515 11.1941 -0.449536 68.7808 6.5407 -1.3822 19.6853 -8.70712 9.17177 173.49 0.279982 89.9346 -17.8405 -7.8806 -0.831971 68.183 -3.06574 -2.03064 24.1201 1.16446 3.2666 0.455089 7.8277 -89.9541 11.2191 0.927127 0.000350966 -0.451539 0.926251 -0.0404675 -22.9892 0.884156 0.279 -2.97654 0.884155 0.278993 90.6308 -27.4038 -106.492 42.8307 -20.4898 -7.24037 -12.6175 -15.3009 -23.2547 -10.5919 -0.100783 -4.24857 -87.8343 -49.9244 81.9587 -20.7685 21.1979 -11.6738 6.14307 -11.2523 -16.3318 0.609993 -0.0314474 -3.20239 2.81925 -4.03008 0.909619 -8.58777 -3.92582 -4.49769 
-10.2468 98.0157 358.165 139.726 -82.7919 136.76 -172.641 6.39363 92.3442 -23.2033 15.1976 -0.453028 67.351 5.25778 -1.44609 20.0359 -8.4303 9.01877 172.736 3.70424 89.446 -20.3807 -4.85835 0.430492 69.155 -2.88847 -2.19626 23.2916 1.27608 4.07067 0.427276 7.86872 -89.8305 11.1356 0.929244 0.246944 -0.535016 0.939208 0.205804 -23.0721 0.812064 0.51482 -3.05948 0.812067 0.514824 90.6641 -27.3924 -106.428 42.8342 -19.7486 -6.62575 -12.8567 -14.6744 -23.9663 -10.9193 -0.129268 -3.96102 -87.2785 -48.9304 82.6248 -20.8146 17.8533 -12.0819 8.31556 -7.40902 -16.83 -1.19849 -0.0793506 -3.27981 4.13364 -5.9931 -0.744978 -6.83043 -5.66966 -3.60031 
-11.0853 97.7903 356.829 124.57 -79.8286 121.182 -172.503 10.0655 92.131 -31.6119 14.711 -0.475914 73.1249 8.09716 -3.81395 13.7821 -16.7679 16.3342 172.415 4.80775 89.4997 -21.637 -1.34029 1.0158 69.8676 -2.32128 -2.02611 22 1.69506 4.46396 0.388745 7.98966 -89.8402 10.8938 0.847873 0.238026 -0.776873 0.857532 0.200471 -23.3136 0.737134 0.481853 -3.30099 0.737138 0.481851 90.8282 -27.24 -106.148 42.1556 -19.1036 -5.81012 -12.6785 -14.5294 -23.4196 -10.727 -0.120941 -4.03409 -87.7462 -47.9808 81.7406 -22.3038 15.5784 -9.58166 7.79352 -9.12245 -16.9291 -1.05955 -0.0889504 -3.45699 4.89358 -6.77805 -2.06698 -5.65952 -6.23264 -3.41255 
-11.5168 97.8591 355.95 123.28 -77.6901 119.739 -172.345 11.364 92.368 -43.1403 14.3782 0.258736 69.8848 6.00632 -1.72714 19.9831 -8.32582 8.84917 172.059 4.43934 89.4374 -21.7965 -0.149691 1.37829 69.4772 -2.06368 -2.16116 21.9945 1.64893 4.61809 0.336674 8.00019 -89.8582 10.873 0.735882 0.212997 -0.797749 0.744546 0.180391 -23.3341 0.637841 0.424318 -3.32142 0.637848 0.424317 91.285 -27.2636 -105.19 42.8101 -17.738 -4.23178 -12.2448 -14.0702 -22.4685 -11.2009 -0.127558 -4.00936 -87.1968 -47.746 82.5435 -23.1288 20.4945 -7.04846 6.43127 -11.7265 -14.957 -5.87866 0.0646495 -6.31281 3.28514 -6.78718 -3.39426 -5.54797 -6.05563 -3.51392 
-11.533 97.849 355.272 124.958 -76.4068 121.63 -171.841 8.74862 93.697 -49.9515 16.8185 1.0771 67.8033 4.56812 -1.21868 20.2249 -8.06439 8.53725 171.936 3.58225 89.5402 -21.5051 0.304433 1.53992 69.4118 -2.06305 -2.2974 21.6334 1.8778 4.36929 0.163913 7.9681 -89.9134 10.9373 0.366452 0.13743 -0.733558 0.372141 0.121158 -23.269 0.308197 0.241206 -3.25632 0.308208 0.241206 91.5401 -27.5812 -104.544 43.7298 -17.0874 -2.29558 -12.0187 -13.0881 -22.4874 -11.0177 -0.0974621 -4.32135 -87.2204 -47.3824 82.443 -26.0009 17.348 -3.28615 7.2952 -10.0163 -11.4335 -5.04476 -0.0344264 -4.92884 2.3099 -6.19686 -3.61952 -6.55961 -5.43072 -4.19201 
-11.1161 97.776 354.137 126.127 -75.6204 123.316 -171.424 3.74267 95.6393 -49.3908 21.3897 1.91325 66.1765 3.84765 -0.822427 18.964 -8.64995 8.35142 171.869 3.57202 89.6209 -21.5681 0.572609 1.67307 69.1091 -1.7413 -2.00237 20.5126 2.30145 4.51082 -0.013526 7.88693 -90.0352 11.1 -0.043154 -0.0658971 -0.570954 -0.0460264 -0.0639306 -23.1061 -0.0213627 -0.0758212 -3.09345 -0.0213696 -0.0758278 91.8165 -27.5791 -103.971 45.1003 -16.3028 0.17112 -11.6223 -12.1592 -22.1864 -11.121 -0.119853 -4.08521 -87.3972 -48.283 82.3301 -25.6505 20.6738 -3.16645 6.48615 -10.5012 -6.85071 -3.51253 -0.0920281 -4.21956 1.13104 -5.92518 -4.19874 -6.66507 -5.16307 -2.5878 
-10.14 97.5532 352.353 130.434 -74.6438 128.263 -170.303 -3.6171 97.5732 -42.2236 25.3051 2.37407 69.0271 5.82905 -2.32974 21.3609 -7.80316 9.16877 171.469 3.51854 89.2067 -22.3475 -0.526381 1.93311 68.7568 -1.35382 -2.32698 19.6409 2.48768 5.04547 -0.134997 7.92423 -90.202 11.0246 -0.362315 -0.367014 -0.646414 -0.378109 -0.350724 -23.1813 -0.23526 -0.458939 -3.16861 -0.235262 -0.45894 92.017 -27.2442 -103.672 46.6058 -15.6217 2.29687 -11.499 -12.4711 -21.6307 -11.2346 -0.121078 -4.10723 -87.9775 -49.2859 81.6276 -25.2047 21.1328 -5.7406 6.63052 -9.72239 -5.00819 -3.9331 -0.0724906 -5.52075 0.191226 -5.59073 -3.50999 -6.8596 -4.95925 -2.85049 
-8.79935 96.9429 348.652 129.26 -73.4431 127.661 -169.196 -8.52697 98.8707 -32.1604 30.7923 1.9598 72.699 8.68452 -1.58047 28.9422 -3.07341 7.59895 171.653 6.30069 88.7887 -24.4688 0.520336 1.77648 67.7678 0.290118 -1.34524 19.1667 2.84154 4.58765 -0.38637 7.96527 -90.2614 10.9416 -0.89019 -0.435817 -0.729095 -0.908509 -0.396222 -23.2654 -0.718062 -0.683218 -3.25277 -0.71806 -0.683219 91.552 -28.2517 -104.279 46.1319 -14.2396 3.03705 -11.3844 -12.2867 -21.5304 -13.4321 -0.224051 -3.32556 -87.6063 -48.3451 82.0205 -25.0922 19.4212 -11.877 7.82082 -6.51767 -5.26055 -4.21276 -0.056113 -6.38974 0.206383 -4.73913 -5.96011 -7.36366 -3.85118 -0.0761306 
